<mxfile host="Electron" agent="Mozilla/5.0 (Macintosh; Intel Mac OS X 10_15_7) AppleWebKit/537.36 (KHTML, like Gecko) draw.io/26.0.16 Chrome/132.0.6834.196 Electron/34.2.0 Safari/537.36" version="26.0.16">
  <diagram id="C5RBs43oDa-KdzZeNtuy" name="Page-1">
    <mxGraphModel dx="909" dy="1912" grid="1" gridSize="10" guides="1" tooltips="1" connect="1" arrows="1" fold="1" page="1" pageScale="1" pageWidth="827" pageHeight="1169" math="0" shadow="0">
      <root>
        <mxCell id="WIyWlLk6GJQsqaUBKTNV-0" />
        <mxCell id="WIyWlLk6GJQsqaUBKTNV-1" parent="WIyWlLk6GJQsqaUBKTNV-0" />
        <mxCell id="Exception" value="Exception" style="html=1;fillColor=#f5f5f5;strokeColor=#666666;fontColor=#333333;" parent="WIyWlLk6GJQsqaUBKTNV-1" vertex="1">
          <mxGeometry x="1420" y="10" width="100" height="20" as="geometry" />
        </mxCell>
        <mxCell id="FormatterError" value="FormatterError" style="swimlane;fontStyle=1;align=center;verticalAlign=top;childLayout=stackLayout;horizontal=1;startSize=26;horizontalStack=0;resizeParent=1;resizeParentMax=0;resizeLast=0;collapsible=1;marginBottom=0;" parent="WIyWlLk6GJQsqaUBKTNV-1" vertex="1">
          <mxGeometry x="1370" y="90" width="200" height="78" as="geometry" />
        </mxCell>
        <mxCell id="FormatterError-attr" value="- message: str" style="text;strokeColor=none;fillColor=none;align=left;verticalAlign=top;spacingLeft=4;spacingRight=4;overflow=hidden;rotatable=0;points=[[0,0.5],[1,0.5]];portConstraint=eastwest;" parent="FormatterError" vertex="1">
          <mxGeometry y="26" width="200" height="26" as="geometry" />
        </mxCell>
        <mxCell id="FormatterError-line" value="" style="line;strokeWidth=1;fillColor=none;align=left;verticalAlign=middle;spacingTop=-1;spacingLeft=3;spacingRight=3;rotatable=0;labelPosition=right;points=[];portConstraint=eastwest;strokeColor=inherit;" parent="FormatterError" vertex="1">
          <mxGeometry y="52" width="200" height="8" as="geometry" />
        </mxCell>
        <mxCell id="FormatterError-method" value="+ __init__(message: str)" style="text;strokeColor=none;fillColor=none;align=left;verticalAlign=top;spacingLeft=4;spacingRight=4;overflow=hidden;rotatable=0;points=[[0,0.5],[1,0.5]];portConstraint=eastwest;" parent="FormatterError" vertex="1">
          <mxGeometry y="60" width="200" height="18" as="geometry" />
        </mxCell>
        <mxCell id="FormatterObject" value="FormatterObject" style="swimlane;fontStyle=1;align=center;verticalAlign=top;childLayout=stackLayout;horizontal=1;startSize=26;horizontalStack=0;resizeParent=1;resizeParentMax=0;resizeLast=0;collapsible=1;marginBottom=0;" parent="WIyWlLk6GJQsqaUBKTNV-1" vertex="1">
          <mxGeometry x="230" y="430" width="321" height="120" as="geometry" />
        </mxCell>
        <mxCell id="FormatterObject-attr" value="- _logging_utils: LoggingUtils&#xa;- _json_utils: JsonUtils&#xa;- _generic_utils: GenericUtils&#xa;- _config: Configuration" style="text;strokeColor=none;fillColor=none;align=left;verticalAlign=top;spacingLeft=4;spacingRight=4;overflow=hidden;rotatable=0;points=[[0,0.5],[1,0.5]];portConstraint=eastwest;" parent="FormatterObject" vertex="1">
          <mxGeometry y="26" width="321" height="64" as="geometry" />
        </mxCell>
        <mxCell id="FormatterObject-line" value="" style="line;strokeWidth=1;fillColor=none;align=left;verticalAlign=middle;spacingTop=-1;spacingLeft=3;spacingRight=3;rotatable=0;labelPosition=right;points=[];portConstraint=eastwest;strokeColor=inherit;" parent="FormatterObject" vertex="1">
          <mxGeometry y="90" width="321" height="8" as="geometry" />
        </mxCell>
        <mxCell id="FormatterObject-method" value="+ format_json(data: Dict[str, str], variables: Dict[str, str]): str" style="text;strokeColor=none;fillColor=none;align=left;verticalAlign=top;spacingLeft=4;spacingRight=4;overflow=hidden;rotatable=0;points=[[0,0.5],[1,0.5]];portConstraint=eastwest;" parent="FormatterObject" vertex="1">
          <mxGeometry y="98" width="321" height="22" as="geometry" />
        </mxCell>
        <mxCell id="FormatterFactory" value="FormatterFactory" style="swimlane;fontStyle=1;align=center;verticalAlign=top;childLayout=stackLayout;horizontal=1;startSize=26;horizontalStack=0;resizeParent=1;resizeParentMax=0;resizeLast=0;collapsible=1;marginBottom=0;" parent="WIyWlLk6GJQsqaUBKTNV-1" vertex="1">
          <mxGeometry x="155" width="285" height="130" as="geometry" />
        </mxCell>
        <mxCell id="FormatterFactory-attr" value="- _instance: FormatterFactory&#xa;- _generic_utils: GenericUtils&#xa;- _config: Configuration" style="text;strokeColor=none;fillColor=none;align=left;verticalAlign=top;spacingLeft=4;spacingRight=4;overflow=hidden;rotatable=0;points=[[0,0.5],[1,0.5]];portConstraint=eastwest;" parent="FormatterFactory" vertex="1">
          <mxGeometry y="26" width="285" height="54" as="geometry" />
        </mxCell>
        <mxCell id="FormatterFactory-line" value="" style="line;strokeWidth=1;fillColor=none;align=left;verticalAlign=middle;spacingTop=-1;spacingLeft=3;spacingRight=3;rotatable=0;labelPosition=right;points=[];portConstraint=eastwest;strokeColor=inherit;" parent="FormatterFactory" vertex="1">
          <mxGeometry y="80" width="285" height="8" as="geometry" />
        </mxCell>
        <mxCell id="FormatterFactory-method" value="+ __new__(cls, *args, **kwargs): FormatterFactory&#xa;+ get_formatter(module_name: str, class_name: str): FormatterObject" style="text;strokeColor=none;fillColor=none;align=left;verticalAlign=top;spacingLeft=4;spacingRight=4;overflow=hidden;rotatable=0;points=[[0,0.5],[1,0.5]];portConstraint=eastwest;" parent="FormatterFactory" vertex="1">
          <mxGeometry y="88" width="285" height="42" as="geometry" />
        </mxCell>
        <mxCell id="CodedJsonToMarkdownFormatter" value="CodedJsonToMarkdownFormatter" style="swimlane;fontStyle=1;align=center;verticalAlign=top;childLayout=stackLayout;horizontal=1;startSize=26;horizontalStack=0;resizeParent=1;resizeParentMax=0;resizeLast=0;collapsible=1;marginBottom=0;" parent="WIyWlLk6GJQsqaUBKTNV-1" vertex="1">
          <mxGeometry x="100" y="630" width="280" height="90" as="geometry" />
        </mxCell>
        <mxCell id="CodedJsonToMarkdownFormatter-attr" value="- _instance: CodedJsonToMarkdownFormatter" style="text;strokeColor=none;fillColor=none;align=left;verticalAlign=top;spacingLeft=4;spacingRight=4;overflow=hidden;rotatable=0;points=[[0,0.5],[1,0.5]];portConstraint=eastwest;" parent="CodedJsonToMarkdownFormatter" vertex="1">
          <mxGeometry y="26" width="280" height="26" as="geometry" />
        </mxCell>
        <mxCell id="CodedJsonToMarkdownFormatter-line" value="" style="line;strokeWidth=1;fillColor=none;align=left;verticalAlign=middle;spacingTop=-1;spacingLeft=3;spacingRight=3;rotatable=0;labelPosition=right;points=[];portConstraint=eastwest;strokeColor=inherit;" parent="CodedJsonToMarkdownFormatter" vertex="1">
          <mxGeometry y="52" width="280" height="8" as="geometry" />
        </mxCell>
        <mxCell id="CodedJsonToMarkdownFormatter-method" value="+ __new__(cls, *args, **kwargs): CodedJsonToMarkdownFormatter&#xa;+ format_json(data: Dict[str, str], variables: Dict[str, str]): str" style="text;strokeColor=none;fillColor=none;align=left;verticalAlign=top;spacingLeft=4;spacingRight=4;overflow=hidden;rotatable=0;points=[[0,0.5],[1,0.5]];portConstraint=eastwest;" parent="CodedJsonToMarkdownFormatter" vertex="1">
          <mxGeometry y="60" width="280" height="30" as="geometry" />
        </mxCell>
        <mxCell id="Jinja2JsonToMarkdownFormatter" value="Jinja2JsonToMarkdownFormatter" style="swimlane;fontStyle=1;align=center;verticalAlign=top;childLayout=stackLayout;horizontal=1;startSize=26;horizontalStack=0;resizeParent=1;resizeParentMax=0;resizeLast=0;collapsible=1;marginBottom=0;" parent="WIyWlLk6GJQsqaUBKTNV-1" vertex="1">
          <mxGeometry x="260" y="180" width="290" height="120" as="geometry" />
        </mxCell>
        <mxCell id="Jinja2JsonToMarkdownFormatter-attr" value="- _instance: Jinja2JsonToMarkdownFormatter" style="text;strokeColor=none;fillColor=none;align=left;verticalAlign=top;spacingLeft=4;spacingRight=4;overflow=hidden;rotatable=0;points=[[0,0.5],[1,0.5]];portConstraint=eastwest;" parent="Jinja2JsonToMarkdownFormatter" vertex="1">
          <mxGeometry y="26" width="290" height="26" as="geometry" />
        </mxCell>
        <mxCell id="Jinja2JsonToMarkdownFormatter-line" value="" style="line;strokeWidth=1;fillColor=none;align=left;verticalAlign=middle;spacingTop=-1;spacingLeft=3;spacingRight=3;rotatable=0;labelPosition=right;points=[];portConstraint=eastwest;strokeColor=inherit;" parent="Jinja2JsonToMarkdownFormatter" vertex="1">
          <mxGeometry y="52" width="290" height="8" as="geometry" />
        </mxCell>
        <mxCell id="Jinja2JsonToMarkdownFormatter-method" value="+ __new__(cls, *args, **kwargs): Jinja2JsonToMarkdownFormatter&#xa;- _load_template(template_path: str): str&#xa;+ format_json(data: Dict[str, str], variables: Dict[str, str]): str" style="text;strokeColor=none;fillColor=none;align=left;verticalAlign=top;spacingLeft=4;spacingRight=4;overflow=hidden;rotatable=0;points=[[0,0.5],[1,0.5]];portConstraint=eastwest;" parent="Jinja2JsonToMarkdownFormatter" vertex="1">
          <mxGeometry y="60" width="290" height="60" as="geometry" />
        </mxCell>
        <mxCell id="Configuration" value="Configuration" style="swimlane;fontStyle=1;align=center;verticalAlign=top;childLayout=stackLayout;horizontal=1;startSize=26;horizontalStack=0;resizeParent=1;resizeParentMax=0;resizeLast=0;collapsible=1;marginBottom=0;fillColor=#f5f5f5;strokeColor=#666666;fontColor=#333333;" parent="WIyWlLk6GJQsqaUBKTNV-1" vertex="1">
          <mxGeometry x="827" y="80" width="160" height="34" as="geometry" />
        </mxCell>
        <mxCell id="LoggingUtils" value="LoggingUtils" style="swimlane;fontStyle=1;align=center;verticalAlign=top;childLayout=stackLayout;horizontal=1;startSize=26;horizontalStack=0;resizeParent=1;resizeParentMax=0;resizeLast=0;collapsible=1;marginBottom=0;fillColor=#f5f5f5;strokeColor=#666666;fontColor=#333333;" parent="WIyWlLk6GJQsqaUBKTNV-1" vertex="1">
          <mxGeometry x="690" y="390" width="160" height="34" as="geometry" />
        </mxCell>
        <mxCell id="JsonUtils" value="JsonUtils" style="swimlane;fontStyle=1;align=center;verticalAlign=top;childLayout=stackLayout;horizontal=1;startSize=26;horizontalStack=0;resizeParent=1;resizeParentMax=0;resizeLast=0;collapsible=1;marginBottom=0;fillColor=#f5f5f5;strokeColor=#666666;fontColor=#333333;" parent="WIyWlLk6GJQsqaUBKTNV-1" vertex="1">
          <mxGeometry x="690" y="473" width="160" height="34" as="geometry" />
        </mxCell>
        <mxCell id="GenericUtils" value="GenericUtils" style="swimlane;fontStyle=1;align=center;verticalAlign=top;childLayout=stackLayout;horizontal=1;startSize=26;horizontalStack=0;resizeParent=1;resizeParentMax=0;resizeLast=0;collapsible=1;marginBottom=0;fillColor=#f5f5f5;strokeColor=#666666;fontColor=#333333;" parent="WIyWlLk6GJQsqaUBKTNV-1" vertex="1">
          <mxGeometry x="580" y="120" width="160" height="34" as="geometry" />
        </mxCell>
        <mxCell id="extends-exception" value="" style="endArrow=block;endSize=16;endFill=0;html=1;rounded=0;exitX=0.5;exitY=0;exitDx=0;exitDy=0;entryX=0.5;entryY=1;entryDx=0;entryDy=0;noEdgeStyle=1;orthogonal=1;" parent="WIyWlLk6GJQsqaUBKTNV-1" source="FormatterError" target="Exception" edge="1">
          <mxGeometry width="160" relative="1" as="geometry">
            <mxPoint x="249" y="49" as="sourcePoint" />
            <mxPoint x="249" y="19" as="targetPoint" />
            <Array as="points" />
          </mxGeometry>
        </mxCell>
        <mxCell id="extends-formatter1" value="" style="endArrow=block;endSize=16;endFill=0;html=1;rounded=0;exitX=0.5;exitY=0;exitDx=0;exitDy=0;entryX=0.25;entryY=1;entryDx=0;entryDy=0;orthogonal=1;" parent="WIyWlLk6GJQsqaUBKTNV-1" source="CodedJsonToMarkdownFormatter" target="FormatterObject" edge="1">
          <mxGeometry width="160" relative="1" as="geometry">
            <mxPoint x="409" y="319" as="sourcePoint" />
            <mxPoint x="499" y="189" as="targetPoint" />
          </mxGeometry>
        </mxCell>
        <mxCell id="extends-formatter2" value="" style="endArrow=block;endSize=16;endFill=0;html=1;rounded=0;entryX=0.5;entryY=0;entryDx=0;entryDy=0;orthogonal=1;exitX=0.489;exitY=0.925;exitDx=0;exitDy=0;exitPerimeter=0;" parent="WIyWlLk6GJQsqaUBKTNV-1" source="Jinja2JsonToMarkdownFormatter-method" target="FormatterObject" edge="1">
          <mxGeometry width="160" relative="1" as="geometry">
            <mxPoint x="370" y="300" as="sourcePoint" />
            <mxPoint x="639" y="189" as="targetPoint" />
          </mxGeometry>
        </mxCell>
        <mxCell id="uses-config1" value="" style="endArrow=open;html=1;endSize=12;startArrow=diamondThin;startSize=14;startFill=1;edgeStyle=orthogonalEdgeStyle;rounded=0;exitX=0.991;exitY=0.125;exitDx=0;exitDy=0;entryX=0;entryY=0.5;entryDx=0;entryDy=0;noEdgeStyle=1;orthogonal=1;exitPerimeter=0;" parent="WIyWlLk6GJQsqaUBKTNV-1" source="FormatterObject" target="Configuration" edge="1">
          <mxGeometry relative="1" as="geometry">
            <mxPoint x="719" y="76" as="sourcePoint" />
            <mxPoint x="749" y="76" as="targetPoint" />
            <Array as="points" />
          </mxGeometry>
        </mxCell>
        <mxCell id="uses-logging" value="" style="endArrow=open;html=1;endSize=12;startArrow=diamondThin;startSize=14;startFill=1;edgeStyle=orthogonalEdgeStyle;rounded=0;exitX=1;exitY=0.5;exitDx=0;exitDy=0;entryX=0;entryY=0.5;entryDx=0;entryDy=0;noEdgeStyle=1;orthogonal=1;" parent="WIyWlLk6GJQsqaUBKTNV-1" source="FormatterObject-attr" target="LoggingUtils" edge="1">
          <mxGeometry relative="1" as="geometry">
            <mxPoint x="719" y="126" as="sourcePoint" />
            <mxPoint x="749" y="126" as="targetPoint" />
            <Array as="points" />
          </mxGeometry>
        </mxCell>
        <mxCell id="uses-json" value="" style="endArrow=open;html=1;endSize=12;startArrow=diamondThin;startSize=14;startFill=1;edgeStyle=orthogonalEdgeStyle;rounded=0;exitX=1;exitY=0.906;exitDx=0;exitDy=0;entryX=0;entryY=0.5;entryDx=0;entryDy=0;noEdgeStyle=1;orthogonal=1;exitPerimeter=0;" parent="WIyWlLk6GJQsqaUBKTNV-1" source="FormatterObject-attr" target="JsonUtils" edge="1">
          <mxGeometry relative="1" as="geometry">
            <mxPoint x="719" y="176" as="sourcePoint" />
            <mxPoint x="749" y="176" as="targetPoint" />
            <Array as="points" />
          </mxGeometry>
        </mxCell>
        <mxCell id="uses-generic1" value="" style="endArrow=open;html=1;endSize=12;startArrow=diamondThin;startSize=14;startFill=1;edgeStyle=orthogonalEdgeStyle;rounded=0;exitX=0.969;exitY=-0.017;exitDx=0;exitDy=0;entryX=0.25;entryY=1;entryDx=0;entryDy=0;noEdgeStyle=1;orthogonal=1;exitPerimeter=0;" parent="WIyWlLk6GJQsqaUBKTNV-1" source="FormatterObject" target="GenericUtils" edge="1">
          <mxGeometry relative="1" as="geometry">
            <mxPoint x="719" y="226" as="sourcePoint" />
            <mxPoint x="749" y="226" as="targetPoint" />
            <Array as="points" />
          </mxGeometry>
        </mxCell>
        <mxCell id="uses-config2" value="" style="endArrow=open;html=1;endSize=12;startArrow=diamondThin;startSize=14;startFill=1;edgeStyle=orthogonalEdgeStyle;rounded=0;exitX=0.996;exitY=0.125;exitDx=0;exitDy=0;entryX=0;entryY=0.25;entryDx=0;entryDy=0;noEdgeStyle=1;orthogonal=1;exitPerimeter=0;" parent="WIyWlLk6GJQsqaUBKTNV-1" source="FormatterFactory" target="Configuration" edge="1">
          <mxGeometry relative="1" as="geometry">
            <mxPoint x="439" y="232" as="sourcePoint" />
            <mxPoint x="829" y="99" as="targetPoint" />
            <Array as="points" />
          </mxGeometry>
        </mxCell>
        <mxCell id="uses-generic2" value="" style="endArrow=open;html=1;endSize=12;startArrow=diamondThin;startSize=14;startFill=1;edgeStyle=orthogonalEdgeStyle;rounded=0;exitX=1;exitY=0.5;exitDx=0;exitDy=0;entryX=0;entryY=0.5;entryDx=0;entryDy=0;noEdgeStyle=1;orthogonal=1;" parent="WIyWlLk6GJQsqaUBKTNV-1" source="FormatterFactory-attr" target="GenericUtils" edge="1">
          <mxGeometry relative="1" as="geometry">
            <mxPoint x="439" y="232" as="sourcePoint" />
            <mxPoint x="749" y="226" as="targetPoint" />
            <Array as="points" />
          </mxGeometry>
        </mxCell>
        <mxCell id="creates" value="«creates»" style="endArrow=open;endSize=12;dashed=1;html=1;rounded=0;entryX=0.286;entryY=-0.033;entryDx=0;entryDy=0;orthogonal=1;entryPerimeter=0;exitX=0.079;exitY=1.031;exitDx=0;exitDy=0;exitPerimeter=0;" parent="WIyWlLk6GJQsqaUBKTNV-1" source="FormatterFactory-method" target="CodedJsonToMarkdownFormatter" edge="1">
          <mxGeometry width="160" relative="1" as="geometry">
            <mxPoint x="289" y="309" as="sourcePoint" />
            <mxPoint x="449" y="309" as="targetPoint" />
          </mxGeometry>
        </mxCell>
        <mxCell id="creates2" value="«creates»" style="endArrow=open;endSize=12;dashed=1;html=1;rounded=0;exitX=0.75;exitY=1;exitDx=0;exitDy=0;entryX=0.382;entryY=-0.01;entryDx=0;entryDy=0;orthogonal=1;entryPerimeter=0;" parent="WIyWlLk6GJQsqaUBKTNV-1" source="FormatterFactory" target="Jinja2JsonToMarkdownFormatter" edge="1">
          <mxGeometry width="160" relative="1" as="geometry">
            <mxPoint x="359" y="309" as="sourcePoint" />
            <mxPoint x="419" y="349" as="targetPoint" />
          </mxGeometry>
        </mxCell>
        <mxCell id="note1" value="Singleton Pattern" style="shape=note;size=20;whiteSpace=wrap;html=1;fillColor=#fff2cc;strokeColor=#d6b656;" parent="WIyWlLk6GJQsqaUBKTNV-1" vertex="1">
          <mxGeometry x="40" y="530" width="100" height="40" as="geometry" />
        </mxCell>
        <mxCell id="note-connector1" value="" style="endArrow=none;dashed=1;html=1;rounded=0;exitX=0.5;exitY=1;exitDx=0;exitDy=0;exitPerimeter=0;noEdgeStyle=1;orthogonal=1;entryX=0.093;entryY=-0.044;entryDx=0;entryDy=0;entryPerimeter=0;" parent="WIyWlLk6GJQsqaUBKTNV-1" source="note1" target="CodedJsonToMarkdownFormatter" edge="1">
          <mxGeometry width="50" height="50" relative="1" as="geometry">
            <mxPoint x="259" y="359" as="sourcePoint" />
            <mxPoint x="100" y="460" as="targetPoint" />
            <Array as="points" />
          </mxGeometry>
        </mxCell>
        <mxCell id="note2" value="Factory Pattern" style="shape=note;size=0;whiteSpace=wrap;html=1;fillColor=#fff2cc;strokeColor=#d6b656;" parent="WIyWlLk6GJQsqaUBKTNV-1" vertex="1">
          <mxGeometry x="130" y="-90" width="100" height="40" as="geometry" />
        </mxCell>
        <mxCell id="note-connector2" value="" style="endArrow=none;dashed=1;html=1;rounded=0;exitX=0.5;exitY=1;exitDx=0;exitDy=0;exitPerimeter=0;entryX=0.121;entryY=0.033;entryDx=0;entryDy=0;noEdgeStyle=1;orthogonal=1;entryPerimeter=0;" parent="WIyWlLk6GJQsqaUBKTNV-1" source="note2" target="FormatterFactory" edge="1">
          <mxGeometry width="50" height="50" relative="1" as="geometry">
            <mxPoint x="259" y="159" as="sourcePoint" />
            <mxPoint x="309" y="109" as="targetPoint" />
            <Array as="points" />
          </mxGeometry>
        </mxCell>
        <mxCell id="DWbx2ITpjy8Ppw4fOh1X-0" value="Singleton Pattern" style="shape=note;size=20;whiteSpace=wrap;html=1;fillColor=#fff2cc;strokeColor=#d6b656;" parent="WIyWlLk6GJQsqaUBKTNV-1" vertex="1">
          <mxGeometry x="220" y="330" width="100" height="40" as="geometry" />
        </mxCell>
        <mxCell id="DWbx2ITpjy8Ppw4fOh1X-1" style="rounded=0;orthogonalLoop=1;jettySize=auto;html=1;entryX=0.159;entryY=0.008;entryDx=0;entryDy=0;entryPerimeter=0;dashed=1;endArrow=none;startFill=0;" parent="WIyWlLk6GJQsqaUBKTNV-1" source="DWbx2ITpjy8Ppw4fOh1X-0" target="FormatterObject" edge="1">
          <mxGeometry relative="1" as="geometry" />
        </mxCell>
      </root>
    </mxGraphModel>
  </diagram>
</mxfile>
